<?xml version="1.0" encoding="utf-8"?>
<svg width="125pt" height="45pt" viewBox="0 0 125 45" version="1.1" xmlns="http://www.w3.org/2000/svg" xmlns:bx="https://boxy-svg.com">
  <g transform="matrix(0.010125, 0, 0, -0.010369, -0.213025, 49.988331)" fill="#000000" stroke="none" bx:origin="0.924042 0.559193">
    <path d="M4729 4769 c-163 -25 -281 -163 -281 -329 0 -187 145 -332 332 -332 187 0 332 145 332 332 0 206 -181 361 -383 329z" style="fill: rgb(172, 117, 36);"/>
    <path d="M2557 4690 c-63 -16 -131 -56 -171 -102 -21 -23 -441 -682 -933 -1463 -492 -781 -989 -1569 -1104 -1752 -228 -362 -247 -404 -234 -506 16 -123 89 -222 203 -275 l57 -27 1115 -3 c757 -2 1137 1 1184 8 154 24 261 127 285 276 25 158 -59 306 -208 366 l-56 23 -816 5 -816 5 781 1238 c429 680 784 1236 788 1235 13 -5 1845 -2915 1872 -2975 78 -169 276 -246 441 -170 108 50 172 133 195 252 8 44 10 413 8 1360 l-3 1300 -24 58 c-32 80 -110 158 -188 187 -173 65 -367 -19 -434 -187 l-24 -58 -5 -702 -5 -701 -745 1180 c-410 649 -760 1205 -778 1236 -48 80 -105 136 -172 166 -64 29 -156 40 -213 26z" style="fill: rgb(172, 117, 36);"/>
  </g>
</svg>